<?xml version="1.0" encoding="utf-8"?>
<!-- Generator: Adobe Illustrator 18.0.0, SVG Export Plug-In . SVG Version: 6.00 Build 0)  -->
<!DOCTYPE svg PUBLIC "-//W3C//DTD SVG 1.1//EN" "http://www.w3.org/Graphics/SVG/1.1/DTD/svg11.dtd">
<svg version="1.1" id="Layer_1" xmlns="http://www.w3.org/2000/svg" xmlns:xlink="http://www.w3.org/1999/xlink" x="0px" y="0px"
	 width="93px" height="63.742px" viewBox="116.492 79.843 93 63.742" enable-background="new 116.492 79.843 93 63.742" shape-rendering="optimizeQuality"
	 xml:space="preserve">
<g>
	<path fill="#FFFFFF" shape-rendering="optimizeQuality" d="M207.503,121.989c-0.592,0.712-1.349,1.416-2.306,2.045c-2.561,1.682-6.212,3.037-10.57,4.094
		c-8.689,2.107-20.417,3.31-31.638,3.31c-11.22,0-22.951-1.204-31.638-3.31c-4.361-1.057-8.012-2.411-10.571-4.094
		c-0.953-0.626-1.709-1.325-2.298-2.034c-1.064-1.274-1.711-2.931-1.711-4.728l0.002-23.002c0-1.611,0.528-3.124,1.413-4.341
		c0.627-0.836,1.49-1.674,2.594-2.401c2.56-1.683,6.21-3.035,10.571-4.094c8.687-2.106,20.418-3.311,31.638-3.311
		c11.22,0,22.949,1.205,31.638,3.311c4.358,1.058,8.009,2.411,10.57,4.094c1.093,0.719,1.966,1.553,2.598,2.394
		c0.893,1.221,1.416,2.717,1.416,4.336c0,0-0.012,22.963-0.012,23.027C209.199,119.072,208.561,120.714,207.503,121.989z"/>
	<path fill="#133D8D" shape-rendering="optimizeQuality" d="M209.48,117.332l-0.002-0.004l0.014-23.069c0-1.171-0.266-2.319-0.785-3.37
		c-0.098-0.197-0.205-0.39-0.32-0.579c-0.114-0.188-0.234-0.371-0.363-0.546l-0.006-0.008c-0.509-0.677-1.118-1.286-1.779-1.815
		c-0.141-0.113-0.285-0.221-0.431-0.328c-0.149-0.108-0.302-0.215-0.459-0.318l-0.002-0.001c-2.142-1.407-4.711-2.407-7.148-3.167
		c-0.566-0.177-1.136-0.342-1.708-0.499c-0.596-0.164-1.2-0.32-1.811-0.469l0.006,0.002c-4.027-0.976-8.159-1.65-12.27-2.153
		c-0.874-0.106-1.749-0.205-2.626-0.296c-5.567-0.58-11.192-0.867-16.789-0.869h-0.013c-7.888,0-15.944,0.55-23.734,1.764
		c-1.38,0.215-2.756,0.453-4.127,0.72c-1.282,0.25-2.56,0.525-3.834,0.834l-0.007,0.002c-2.777,0.673-5.643,1.54-8.225,2.775
		c-0.432,0.206-0.858,0.424-1.276,0.657c-0.38,0.212-0.753,0.436-1.119,0.672l-0.002,0.003l-0.041,0.027
		c-0.751,0.495-1.452,1.077-2.061,1.74c-0.108,0.117-0.211,0.238-0.313,0.36c-0.099,0.119-0.2,0.246-0.301,0.38l0.005-0.007
		c-0.388,0.533-0.7,1.11-0.939,1.723c-0.048,0.121-0.09,0.244-0.131,0.368c-0.253,0.762-0.385,1.56-0.391,2.362l0.002,0.004
		l-0.003,23.044c0,1.297,0.327,2.569,0.953,3.704c0.118,0.213,0.246,0.421,0.383,0.622c0.137,0.2,0.284,0.394,0.44,0.58
		c0.471,0.566,1.005,1.079,1.584,1.533c0.123,0.096,0.248,0.19,0.375,0.281c0.131,0.094,0.264,0.185,0.398,0.274l0.019,0.013
		c2.138,1.402,4.7,2.399,7.132,3.158c0.567,0.176,1.137,0.342,1.709,0.499c0.597,0.164,1.201,0.32,1.813,0.468l-0.006-0.002
		c4.026,0.977,8.159,1.651,12.269,2.153c0.874,0.106,1.75,0.205,2.626,0.296c5.567,0.579,11.193,0.866,16.79,0.868h0.013
		c7.887,0,15.943-0.549,23.733-1.763c1.38-0.215,2.756-0.453,4.127-0.72c1.282-0.25,2.561-0.525,3.835-0.834l0.006-0.002
		c2.779-0.673,5.638-1.541,8.224-2.774c0.432-0.206,0.858-0.426,1.276-0.659c0.381-0.211,0.755-0.434,1.119-0.671l0.002-0.004
		l0.041-0.027c0.654-0.43,1.264-0.925,1.813-1.483c0.098-0.1,0.193-0.202,0.286-0.305c0.09-0.1,0.177-0.203,0.254-0.292l0.007-0.011
		c0.463-0.558,0.849-1.186,1.139-1.85c0.056-0.131,0.109-0.262,0.158-0.396C209.317,119.096,209.473,118.218,209.48,117.332
		L209.48,117.332z M117.055,94.312l-0.002-0.004v-0.042c0-0.757,0.123-1.51,0.361-2.229c0.038-0.114,0.08-0.228,0.123-0.34
		c0.221-0.569,0.518-1.11,0.877-1.606c0.085-0.114,0.175-0.227,0.266-0.337c0.096-0.115,0.195-0.227,0.297-0.337
		c0.569-0.619,1.219-1.164,1.92-1.628l0.002-0.004l0.041-0.027c0.364-0.239,0.739-0.462,1.119-0.675
		c0.408-0.227,0.824-0.44,1.246-0.639c2.548-1.217,5.37-2.071,8.111-2.736l0.003-0.001l0.008-0.002
		c1.262-0.305,2.533-0.579,3.807-0.827c1.365-0.266,2.735-0.505,4.108-0.718c7.763-1.21,15.783-1.754,23.628-1.753l0.028-0.003
		c5.578,0,11.192,0.287,16.74,0.865c0.872,0.09,1.743,0.191,2.614,0.297c4.09,0.5,8.214,1.172,12.233,2.147l-0.009-0.003
		c0.595,0.144,1.183,0.295,1.773,0.457c0.565,0.155,1.128,0.321,1.687,0.495c2.383,0.743,4.906,1.719,7,3.093l0.012,0.007
		c0.147,0.097,0.292,0.197,0.435,0.301c0.139,0.1,0.275,0.205,0.409,0.313c0.621,0.498,1.198,1.074,1.685,1.721l-0.002-0.004
		c0.12,0.164,0.232,0.331,0.338,0.505c0.106,0.175,0.203,0.355,0.294,0.538c0.481,0.973,0.725,2.037,0.727,3.122l-0.014,22.985
		l0.002,0.004v0.042c0,0.834-0.148,1.662-0.436,2.444c-0.045,0.123-0.094,0.246-0.145,0.369c-0.266,0.614-0.62,1.189-1.04,1.694
		l-0.007,0.01c-0.082,0.099-0.171,0.199-0.256,0.294c-0.088,0.098-0.179,0.193-0.27,0.289c-0.521,0.532-1.096,0.999-1.709,1.398
		l-0.014,0.011c-0.364,0.239-0.743,0.468-1.123,0.68c-0.407,0.227-0.824,0.438-1.245,0.641c-2.546,1.216-5.369,2.07-8.108,2.734
		l-0.013,0.003c-1.262,0.306-2.533,0.579-3.806,0.827c-1.365,0.266-2.735,0.505-4.108,0.719c-7.763,1.21-15.782,1.753-23.627,1.752
		l-0.028,0.003c-5.579,0-11.193-0.287-16.741-0.865c-0.872-0.09-1.744-0.19-2.615-0.297c-4.089-0.5-8.214-1.172-12.233-2.147
		l0.009,0.003c-0.596-0.144-1.183-0.295-1.774-0.457c-0.565-0.155-1.128-0.32-1.688-0.495c-2.386-0.743-4.913-1.722-7.01-3.1
		l-0.017-0.011c-0.123-0.081-0.244-0.164-0.363-0.25c-0.121-0.086-0.24-0.177-0.357-0.268c-0.549-0.43-1.055-0.915-1.501-1.452
		c-0.143-0.172-0.278-0.352-0.404-0.537c-0.127-0.186-0.245-0.377-0.354-0.574c-0.581-1.053-0.883-2.233-0.885-3.435L117.055,94.312
		z"/>
	<path fill="#133D8D" shape-rendering="optimizeQuality" d="M206.912,94.259l-0.013,23.027c0,1.23-0.436,2.358-1.166,3.235c-0.444,0.536-1.032,1.088-1.8,1.591
		c-2.237,1.469-5.596,2.748-9.847,3.78c-8.468,2.054-20.009,3.245-31.096,3.245c-11.086,0-22.628-1.191-31.097-3.245
		c-4.253-1.031-7.609-2.311-9.848-3.78c-0.761-0.502-1.349-1.05-1.792-1.583c-0.735-0.879-1.181-2.006-1.181-3.242l0.004-23.017
		c0-1.112,0.355-2.141,0.963-2.975c0.462-0.617,1.118-1.26,2.006-1.845c2.24-1.47,5.596-2.749,9.849-3.78
		c8.469-2.054,20.012-3.247,31.097-3.247c11.087,0,22.627,1.193,31.096,3.247c4.251,1.031,7.61,2.31,9.847,3.78
		c0.888,0.584,1.551,1.227,2.014,1.842C206.56,92.129,206.912,93.142,206.912,94.259z"/>
	<path fill="#FFFFFF" shape-rendering="optimizeQuality" d="M201.026,97.699c-0.252,0.253-0.376,0.559-0.376,0.913c0,0.362,0.123,0.668,0.373,0.921
		c0.252,0.254,0.557,0.381,0.914,0.381c0.362,0,0.665-0.127,0.917-0.381c0.25-0.253,0.375-0.559,0.375-0.921
		c0-0.354-0.124-0.66-0.375-0.913c-0.254-0.253-0.557-0.381-0.917-0.381C201.582,97.318,201.28,97.446,201.026,97.699
		L201.026,97.699z M203.004,99.678c-0.293,0.294-0.651,0.442-1.067,0.442c-0.414,0-0.771-0.148-1.059-0.442
		c-0.292-0.294-0.438-0.649-0.438-1.066c0-0.411,0.149-0.765,0.441-1.058c0.291-0.291,0.646-0.437,1.057-0.437
		c0.416,0,0.774,0.146,1.067,0.437c0.292,0.293,0.437,0.646,0.44,1.058C203.444,99.029,203.296,99.383,203.004,99.678
		L203.004,99.678z M202.222,98.046c0.073,0.04,0.108,0.12,0.108,0.24c0,0.126-0.056,0.213-0.168,0.258
		c-0.06,0.022-0.152,0.035-0.276,0.035h-0.262v-0.597h0.246C202.033,97.983,202.151,98.005,202.222,98.046L202.222,98.046z
		 M201.911,97.785c0.204,0,0.354,0.019,0.45,0.06c0.171,0.071,0.254,0.21,0.254,0.417c0,0.147-0.054,0.257-0.161,0.326
		c-0.057,0.037-0.136,0.062-0.24,0.079c0.13,0.021,0.227,0.075,0.286,0.163c0.058,0.086,0.088,0.171,0.088,0.254v0.12
		c0,0.039,0.002,0.08,0.005,0.124c0.002,0.042,0.007,0.071,0.016,0.085l0.009,0.02h-0.274c0-0.005,0-0.01-0.002-0.015
		c-0.002-0.006-0.002-0.013-0.005-0.018l-0.007-0.053v-0.132c0-0.19-0.051-0.317-0.154-0.377c-0.061-0.035-0.169-0.053-0.324-0.053
		h-0.228v0.649h-0.292v-1.647H201.911z"/>
	<path fill="#FFFFFF" shape-rendering="optimizeQuality" d="M193.817,102.091v12.487c0,0.475,0.421,0.861,0.941,0.861c0.518,0,0.939-0.386,0.939-0.861v-12.487
		c0-0.476-0.421-0.861-0.939-0.861C194.238,101.23,193.817,101.615,193.817,102.091L193.817,102.091z M201.237,108.334
		c-0.007,3.5-0.3,6.383-0.607,7.285c-0.08,0.237-0.186,0.467-0.314,0.692c-1.279,0.944-3.405,1.258-5.558,1.282
		c-2.156-0.024-4.281-0.338-5.56-1.282c-0.128-0.225-0.232-0.455-0.314-0.692c-0.305-0.903-0.597-3.786-0.605-7.285
		c0.008-3.499,0.3-6.382,0.605-7.285c0.082-0.237,0.186-0.466,0.314-0.69c1.279-0.944,3.405-1.259,5.56-1.281
		c2.153,0.022,4.278,0.337,5.558,1.281c0.128,0.224,0.234,0.453,0.314,0.69C200.937,101.952,201.229,104.834,201.237,108.334z"/>
	<path fill="#FFFFFF" shape-rendering="optimizeQuality" d="M144.217,91.441v9.07c1.19-0.68,2.681-0.937,3.312-0.937c0.966,0,1.786,0.286,2.461,0.858
		c0.684,0.573,1.1,1.234,1.246,1.986c0.155,0.74,0.231,2.102,0.233,4.081v12.629c-1.801,0.267-3.326,0.267-5.21,0v-12.93
		c0-1.227-0.003-1.732-0.003-2.072c0-0.692-0.611-1.027-1.01-1.027c-0.383,0-1.048,0.27-1.048,0.966c0,0.423,0.02,0.857,0.02,1.928
		l0.016,9.684c-2.174,0.254-3.691,0.254-5.53,0l-0.014-24.236C140.607,91.174,142.449,91.174,144.217,91.441z"/>
	<path fill="#FFFFFF" shape-rendering="optimizeQuality" d="M137.292,110.137c-0.08,2.667-0.156,4.754-0.41,5.497c-0.08,0.239-0.185,0.468-0.313,0.693
		c-1.279,0.943-3.406,1.258-5.559,1.28c-2.153-0.022-4.279-0.338-5.56-1.28c-0.127-0.225-0.23-0.455-0.312-0.693
		c-0.308-0.902-0.599-3.784-0.605-7.284c0.005-3.501,0.297-6.384,0.605-7.285c0.082-0.238,0.185-0.468,0.312-0.692
		c1.281-0.944,3.407-1.26,5.56-1.281c2.154,0.021,4.28,0.337,5.559,1.281c0.128,0.224,0.233,0.454,0.313,0.692
		c0.258,0.755,0.337,2.78,0.413,5.509h-5.344v-4.469c0-0.475-0.421-0.86-0.942-0.86c-0.518,0-0.94,0.386-0.94,0.86v12.488
		c0,0.475,0.422,0.862,0.94,0.862c0.521,0,0.942-0.387,0.942-0.862v-4.456C131.951,110.137,137.292,110.137,137.292,110.137z"/>
	<path fill="#FFFFFF" shape-rendering="optimizeQuality" d="M172.914,111.843c-0.082,2.667-0.158,4.753-0.413,5.499c-0.079,0.235-0.184,0.465-0.314,0.689
		c-1.279,0.945-3.402,1.26-5.558,1.282c-2.154-0.023-4.278-0.338-5.559-1.282c-0.127-0.223-0.232-0.454-0.312-0.689
		c-0.307-0.906-0.599-3.786-0.607-7.286c0.007-3.501,0.3-6.383,0.607-7.285c0.08-0.238,0.185-0.468,0.312-0.692
		c1.281-0.945,3.405-1.26,5.559-1.281c2.156,0.021,4.279,0.336,5.558,1.281c0.13,0.224,0.235,0.454,0.314,0.692
		c0.258,0.756,0.337,2.781,0.416,5.509h-5.347v-4.468c0-0.476-0.422-0.86-0.941-0.86c-0.52,0-0.94,0.384-0.94,0.86v12.487
		c0,0.477,0.421,0.86,0.94,0.86c0.52,0,0.941-0.384,0.941-0.86v-4.456L172.914,111.843L172.914,111.843z"/>
	<path fill="#FFFFFF" shape-rendering="optimizeQuality" d="M186.926,108.346c-0.082,2.668-0.158,4.754-0.411,5.498c-0.081,0.238-0.185,0.469-0.313,0.692
		c-1.281,0.944-3.404,1.259-5.56,1.281c-2.152-0.022-4.278-0.337-5.558-1.281c-0.128-0.223-0.233-0.454-0.313-0.692
		c-0.309-0.904-0.599-3.784-0.607-7.285c0.007-3.499,0.298-6.382,0.607-7.283c0.08-0.238,0.185-0.469,0.313-0.692
		c1.28-0.944,3.406-1.26,5.558-1.281c2.156,0.021,4.279,0.337,5.56,1.281c0.128,0.223,0.232,0.455,0.313,0.692
		c0.256,0.755,0.336,2.781,0.414,5.508h-5.347v-4.468c0-0.476-0.42-0.86-0.941-0.86c-0.518,0-0.94,0.385-0.94,0.86v12.487
		c0,0.474,0.422,0.86,0.94,0.86c0.52,0,0.941-0.386,0.941-0.86v-4.457H186.926z"/>
	<path fill="#FFFFFF" shape-rendering="optimizeQuality" d="M158.685,97.603v18.007c-1.834,0.309-3.514,0.287-5.578,0V97.603
		C154.904,97.247,156.688,97.247,158.685,97.603z"/>
	<path fill="#133D8D" shape-rendering="optimizeQuality" d="M123.029,141.176h2.062c1.554,0,2.062-0.731,2.062-1.391c0-0.599-0.437-0.965-0.945-1.077v-0.02
		c0.488-0.142,0.823-0.467,0.823-1.026c0-0.62-0.498-1.29-2.001-1.29h-2.001V141.176L123.029,141.176z M124.35,140.211v-1.026h0.813
		c0.437,0,0.64,0.193,0.64,0.518c0,0.365-0.254,0.508-0.65,0.508L124.35,140.211L124.35,140.211z M124.35,138.312v-0.975h0.691
		c0.467,0,0.64,0.183,0.64,0.477c0,0.335-0.223,0.498-0.609,0.498H124.35L124.35,138.312z M132.196,139.165v-0.315
		c0-1.615-0.813-2.6-2.214-2.6c-1.442,0-2.234,1.107-2.234,2.559c0,1.26,0.701,2.47,2.539,2.47c0.609,0,1.208-0.134,1.747-0.459
		l-0.406-0.935c-0.345,0.203-0.731,0.325-1.229,0.325c-0.721,0-1.239-0.376-1.27-1.046L132.196,139.165L132.196,139.165z
		 M129.118,138.24c0-0.498,0.284-0.955,0.843-0.955c0.599,0,0.833,0.477,0.853,0.955H129.118L129.118,138.24z M134.506,141.279
		c1.503,0,2.163-0.794,2.163-1.576c0-0.467-0.254-0.853-0.792-1.016v-0.021c0.447-0.162,0.68-0.559,0.68-1.005
		c0-0.813-0.731-1.412-1.98-1.412c-0.589,0-1.188,0.142-1.727,0.396l0.366,0.934c0.335-0.162,0.843-0.294,1.249-0.294
		c0.508,0,0.762,0.193,0.762,0.477c0,0.315-0.234,0.538-0.965,0.538c-0.061,0-0.437,0-0.701-0.02v0.955
		c0.223-0.031,0.548-0.031,0.66-0.031c0.752,0,1.107,0.132,1.107,0.498c0,0.365-0.335,0.548-0.934,0.548
		c-0.488,0-0.955-0.092-1.463-0.325v1.026C133.348,141.145,133.886,141.279,134.506,141.279L134.506,141.279z M137.151,142.894
		h1.259v-1.718h2.966v1.718h1.259v-2.815h-0.68v-3.707h-3.128c-0.386,1.96-0.68,2.915-1.341,3.707h-0.335L137.151,142.894
		L137.151,142.894z M140.584,140.079h-1.635v-0.02c0.376-0.64,0.67-1.513,0.853-2.57h0.782L140.584,140.079L140.584,140.079z
		 M147.698,139.165v-0.315c0-1.615-0.813-2.6-2.214-2.6c-1.442,0-2.234,1.107-2.234,2.559c0,1.26,0.701,2.47,2.539,2.47
		c0.609,0,1.208-0.134,1.747-0.459l-0.406-0.935c-0.345,0.203-0.731,0.325-1.229,0.325c-0.721,0-1.239-0.376-1.27-1.046
		L147.698,139.165L147.698,139.165z M144.621,138.24c0-0.498,0.284-0.955,0.843-0.955c0.599,0,0.833,0.477,0.853,0.955H144.621
		L144.621,138.24z M154.535,141.279c0.67,0,1.29-0.205,1.686-0.489l-0.386-0.934c-0.355,0.203-0.68,0.325-1.107,0.325
		c-0.772,0-1.28-0.488-1.28-1.391c0-0.813,0.498-1.452,1.341-1.452c0.467,0,0.833,0.142,1.178,0.406v-1.148
		c-0.254-0.162-0.68-0.345-1.331-0.345c-1.412,0-2.59,1.026-2.59,2.549C152.046,140.211,152.94,141.279,154.535,141.279
		L154.535,141.279z M160.558,143.584h1.371v-2.397c0.223,0.061,0.457,0.091,0.691,0.091c1.554,0,2.529-1.068,2.529-2.51
		c0-1.513-0.904-2.519-2.691-2.519c-0.721,0-1.371,0.132-1.899,0.315V143.584L160.558,143.584z M161.93,140.048v-2.61
		c0.152-0.051,0.294-0.061,0.467-0.061c0.843,0,1.351,0.457,1.351,1.391c0,0.843-0.406,1.381-1.229,1.381
		C162.285,140.15,162.112,140.109,161.93,140.048L161.93,140.048z M170.202,139.165v-0.315c0-1.615-0.813-2.6-2.214-2.6
		c-1.442,0-2.234,1.107-2.234,2.559c0,1.26,0.701,2.47,2.539,2.47c0.609,0,1.208-0.134,1.747-0.459l-0.406-0.935
		c-0.345,0.203-0.731,0.325-1.229,0.325c-0.721,0-1.239-0.376-1.27-1.046L170.202,139.165L170.202,139.165z M167.124,138.24
		c0-0.498,0.284-0.955,0.843-0.955c0.599,0,0.833,0.477,0.853,0.955H167.124L167.124,138.24z M173.213,141.279
		c1.625,0,2.448-1.078,2.448-2.531c0-1.208-0.65-2.214-2.072-2.214c-0.538,0-1.016,0.173-1.361,0.365h-0.02
		c0.061-0.376,0.183-0.691,0.345-0.863c0.294-0.345,0.802-0.417,2.762-0.843v-1.208c-2.224,0.457-2.935,0.528-3.575,1.158
		c-0.599,0.548-0.924,1.838-0.924,2.976C170.816,140.394,171.801,141.279,173.213,141.279L173.213,141.279z M173.253,140.18
		c-0.67,0-1.087-0.66-1.087-2.001c0-0.061,0-0.173,0.01-0.294c0.356-0.183,0.782-0.305,1.137-0.305c0.741,0,0.945,0.64,0.945,1.28
		C174.259,139.561,173.995,140.18,173.253,140.18L173.253,140.18z M180.723,139.165v-0.315c0-1.615-0.813-2.6-2.214-2.6
		c-1.442,0-2.235,1.107-2.235,2.559c0,1.26,0.701,2.47,2.539,2.47c0.609,0,1.208-0.134,1.747-0.459l-0.406-0.935
		c-0.345,0.203-0.731,0.325-1.229,0.325c-0.721,0-1.239-0.376-1.27-1.046L180.723,139.165L180.723,139.165z M177.646,138.24
		c0-0.498,0.284-0.955,0.843-0.955c0.599,0,0.833,0.477,0.853,0.955H177.646L177.646,138.24z M181.53,141.176h1.371v-1.94h1.737
		v1.94h1.371v-4.804h-1.371v1.655h-1.737v-1.655h-1.371V141.176L181.53,141.176z M187.05,141.176h1.371v-1.93h0.67
		c0.132,0,0.254,0.132,0.376,0.427l0.569,1.503h1.483l-0.863-1.848c-0.142-0.305-0.315-0.478-0.548-0.569v-0.02
		c0.355-0.224,0.396-0.843,0.64-1.148c0.081-0.102,0.183-0.152,0.335-0.152c0.102,0,0.203,0.02,0.284,0.051v-1.168
		c-0.152-0.051-0.406-0.071-0.548-0.071c-0.436,0-0.721,0.163-0.904,0.417c-0.427,0.569-0.406,1.544-0.985,1.544h-0.508v-1.838
		h-1.371L187.05,141.176L187.05,141.176z M194.378,141.279c1.463,0,2.458-1.068,2.458-2.521s-0.995-2.509-2.458-2.509
		c-1.473,0-2.468,1.056-2.468,2.509S192.915,141.279,194.378,141.279L194.378,141.279z M194.378,140.18
		c-0.721,0-1.066-0.609-1.066-1.422c0-0.813,0.345-1.412,1.066-1.412c0.721,0,1.056,0.599,1.056,1.412
		S195.099,140.18,194.378,140.18L194.378,140.18z M197.653,141.176h1.331v-1.879c0-0.396-0.021-0.762-0.03-0.945h0.03
		c0.081,0.183,0.244,0.467,0.426,0.762l0.599,0.965h0.579l0.599-0.965c0.183-0.284,0.345-0.569,0.437-0.762h0.031
		c-0.01,0.183-0.031,0.538-0.031,0.924v1.899h1.331v-4.804h-1.341l-0.63,1.016c-0.284,0.467-0.538,0.955-0.67,1.208h-0.02
		c-0.142-0.264-0.386-0.741-0.67-1.208l-0.64-1.016h-1.331V141.176L197.653,141.176z"/>
	
		<radialGradient id="SVGID_1_" cx="155.4686" cy="133.7094" r="5.0407" gradientTransform="matrix(1 0 0 -1 0 224)" gradientUnits="userSpaceOnUse">
		<stop  offset="0" style="stop-color:#EC2127"/>
		<stop  offset="1" style="stop-color:#C12126"/>
	</radialGradient>
	<ellipse fill="url(#SVGID_1_)" cx="155.469" cy="90.291" rx="4.972" ry="5.108"/>
</g>
</svg>
