<?xml version="1.0" encoding="UTF-8"?>
<!DOCTYPE svg PUBLIC "-//W3C//DTD SVG 1.1//EN" "http://www.w3.org/Graphics/SVG/1.1/DTD/svg11.dtd">
<!-- Creator: CorelDRAW X8 -->
<svg xmlns="http://www.w3.org/2000/svg" xml:space="preserve" width="82.5mm" height="14.5mm" version="1.1" style="shape-rendering:geometricPrecision; text-rendering:geometricPrecision; image-rendering:optimizeQuality; fill-rule:evenodd; clip-rule:evenodd"
viewBox="0 0 8250 1450"
 xmlns:xlink="http://www.w3.org/1999/xlink">
 <defs>
  <style type="text/css">
   <![CDATA[
    .str1 {stroke:#2B2926;stroke-width:30}
    .str0 {stroke:white;stroke-width:30}
    .fil0 {fill:none}
   ]]>
  </style>
 </defs>
 <g id="Слой_x0020_1">
  <metadata id="CorelCorpID_0Corel-Layer"/>
  <ellipse class="fil0 str0" cx="7577" cy="-5426" rx="914" ry="684"/>
  <line class="fil0 str0" x1="6134" y1="-6101" x2="6138" y2= "-4761" />
  <polyline class="fil0 str0" points="4059,-6073 5375,-6073 5374,-6042 4000,-4776 4000,-4766 5446,-4766 "/>
  <polyline class="fil0 str0" points="1927,-4734 2759,-6065 2803,-6065 3621,-4739 "/>
  <path class="fil0 str0" d="M-198 -5677c-16,-111 -33,-223 -141,-301 -108,-77 -309,-121 -531,-125 -223,-4 -468,31 -590,126 -121,94 -119,247 -9,342 110,94 329,131 567,170 239,40 497,82 632,155 134,72 146,174 117,265 -28,92 -95,173 -237,228 -142,55 -358,83 -540,79 -182,-5 -329,-43 -434,-95 -105,-52 -168,-118 -207,-191 -38,-72 -51,-149 -64,-227"/>
  <path class="fil0 str0" d="M400 -4732c0,-452 0,-905 0,-1357 282,-2 565,-3 769,0 205,3 331,11 432,64 102,54 180,153 181,261 1,107 -74,224 -179,285 -105,61 -240,67 -446,69 -205,2 -481,1 -757,-1"/>
  <ellipse class="fil0 str1" cx="7507" cy="749" rx="595" ry="511"/>
  <ellipse class="fil0 str1" cx="7507" cy="749" rx="613" ry="526"/>
  <line class="fil0 str1" x1="6183" y1="274" x2="6186" y2= "1275" />
  <line class="fil0 str1" x1="6193" y1="264" x2="6196" y2= "1265" />
  <polyline class="fil0 str1" points="4667,276 5524,276 5523,299 4628,1245 4628,1253 5570,1253 "/>
  <polyline class="fil0 str1" points="4667,266 5524,266 5523,289 4628,1235 4628,1243 5570,1243 "/>
  <polyline class="fil0 str1" points="3018,1258 3560,264 3590,264 4122,1255 "/>
  <polyline class="fil0 str1" points="3008,1258 3550,264 3580,264 4112,1255 "/>
  <polyline class="fil0 str1" points="3013,1268 3555,273 3584,273 4117,1264 "/>
  <path class="fil0 str1" d="M1137 555c-11,-83 -22,-167 -92,-225 -71,-58 -201,-91 -346,-94 -145,-3 -305,24 -384,95 -80,70 -78,184 -7,255 72,71 215,98 370,127 155,30 324,62 412,116 87,54 95,130 76,198 -18,68 -62,129 -155,170 -92,41 -233,63 -351,59 -119,-3 -215,-31 -283,-70 -69,-39 -110,-89 -135,-143 -25,-54 -33,-112 -42,-170"/>
  <path class="fil0 str1" d="M1147 565c-11,-83 -22,-167 -92,-225 -71,-58 -201,-91 -346,-94 -145,-3 -305,24 -384,95 -80,70 -78,184 -7,255 72,71 215,98 370,127 155,30 324,62 412,116 87,54 95,130 76,198 -18,68 -62,129 -155,170 -92,41 -233,63 -351,59 -119,-3 -215,-31 -283,-70 -69,-39 -110,-89 -135,-143 -25,-54 -33,-112 -42,-170"/>
  <path class="fil0 str1" d="M1137 565c-11,-83 -22,-167 -92,-225 -71,-58 -201,-91 -346,-94 -145,-3 -305,24 -384,95 -80,70 -78,184 -7,255 72,71 215,98 370,127 155,30 324,62 412,116 87,54 95,130 76,198 -18,68 -62,129 -155,170 -92,41 -233,63 -351,59 -119,-3 -215,-31 -283,-70 -69,-39 -110,-89 -135,-143 -25,-54 -33,-112 -42,-170"/>
  <path class="fil0 str1" d="M1794 1282c0,-338 0,-676 0,-1014 184,-1 368,-2 501,0 134,2 216,8 282,48 66,40 117,114 118,195 0,80 -49,167 -117,213 -69,45 -156,50 -290,52 -134,1 -314,0 -494,-1"/>
  <path class="fil0 str1" d="M1804 1282c0,-338 0,-676 0,-1014 184,-1 368,-2 501,0 134,2 216,8 282,48 66,40 117,114 118,195 0,80 -49,167 -117,213 -69,45 -156,50 -290,52 -134,1 -314,0 -494,-1"/>
 </g>
</svg>
